<?xml version="1.0" encoding="UTF-8"?>
<svg id="Layer_1" data-name="Layer 1" xmlns="http://www.w3.org/2000/svg" viewBox="0 0 1024 1024">
  <path d="M906.87,182c4.62,3.81,7.4,20.17,7.91,26.38,3.62,43.98-4.35,87.26-25.56,125.81,74.62,118.8,50.91,271.09-42.1,372.18-154.45,167.86-441.61,182.19-620.48,45.26-128.44-98.33-180.89-274.51-91.45-417.44-20.39-38.72-29.45-81.7-25.35-125.6,1.41-15.04,4.46-33.19,23.94-28.1,10.97,2.86,35.94,20.62,49.37,26.67,28.43,12.8,63.03,22.72,94.27,24.47,38.31,2.14,74.34-15.55,111.98-23.63,82.86-17.79,175.28-16.26,257.92,2.53,33.96,7.72,64.31,23.21,99.57,20.99,33.23-2.1,71.88-13.74,101.8-28.07,12.9-6.17,46.1-31.41,58.18-21.45ZM486.3,456.43c0-92.97-75.39-168.34-168.4-168.34s-168.4,75.37-168.4,168.34,75.39,168.34,168.4,168.34,168.4-75.37,168.4-168.34ZM875.85,456.4c0-92.96-75.38-168.32-168.37-168.32s-168.37,75.36-168.37,168.32,75.38,168.32,168.37,168.32,168.37-75.36,168.37-168.32ZM498.8,577.02c-20.37,2.17-39.92,10.81-55.06,24.52,18.63,34.22,38.07,69.37,69.39,93.74,30.58-23.99,51.47-58.6,67.53-93.46-19.52-21.89-53.89-27.78-81.87-24.79Z"/>
  <path d="M790.35,455.36c0,46.17-37.45,83.61-83.64,83.61s-83.64-37.44-83.64-83.61,37.44-83.62,83.64-83.62,83.64,37.44,83.64,83.62Z"/>
  <path d="M403.11,455.22c0,46.35-37.58,83.92-83.94,83.92s-83.94-37.57-83.94-83.92,37.58-83.91,83.94-83.91,83.94,37.57,83.94,83.91Z"/>
</svg>